{
	"asset":{
		"generator":"Khronos glTF Blender I/O v5.0.21",
		"version":"2.0"
	},
	"scene":0,
	"scenes":[
		{
			"name":"Scene",
			"nodes":[
				0
			]
		}
	],
	"nodes":[
		{
			"mesh":0,
			"name":"Muchkin1.002"
		}
	],
	"materials":[
		{
			"alphaMode":"OPAQUE",
			"doubleSided":true,
			"name":"Muchkin2",
			"pbrMetallicRoughness":{
				"baseColorTexture":{
					"index":0
				},
				"metallicFactor":0,
				"roughnessFactor":0.858578622341156
			}
		}
	],
	"meshes":[
		{
			"name":"Mesh",
			"primitives":[
				{
					"attributes":{
						"POSITION":0,
						"NORMAL":1,
						"TEXCOORD_0":2
					},
					"indices":3,
					"material":0
				}
			]
		}
	],
	"textures":[
		{
			"sampler":0,
			"source":0
		}
	],
	"images":[
		{
			"mimeType":"image/png",
			"name":"Muchkin2_BaseColor.png",
			"uri":"oiiaioooooiai-cat/textures/Muchkin2_BaseColor.png"
		}
	],
	"accessors":[
		{
			"bufferView":0,
			"componentType":5126,
			"count":9157,
			"max":[
				13.02069091796875,
				19.270004272460938,
				27.29109001159668
			],
			"min":[
				-14.234167098999023,
				-11.794869422912598,
				-15.379101753234863
			],
			"type":"VEC3"
		},
		{
			"bufferView":1,
			"componentType":5126,
			"count":9157,
			"type":"VEC3"
		},
		{
			"bufferView":2,
			"componentType":5126,
			"count":9157,
			"type":"VEC2"
		},
		{
			"bufferView":3,
			"componentType":5123,
			"count":47322,
			"type":"SCALAR"
		}
	],
	"bufferViews":[
		{
			"buffer":0,
			"byteLength":109884,
			"byteOffset":0,
			"target":34962
		},
		{
			"buffer":0,
			"byteLength":109884,
			"byteOffset":109884,
			"target":34962
		},
		{
			"buffer":0,
			"byteLength":73256,
			"byteOffset":219768,
			"target":34962
		},
		{
			"buffer":0,
			"byteLength":94644,
			"byteOffset":293024,
			"target":34963
		}
	],
	"samplers":[
		{
			"magFilter":9729,
			"minFilter":9987
		}
	],
	"buffers":[
		{
			"byteLength":387668,
			"uri":"Oiiiaii_Cat.bin"
		}
	]
}
